#!OML:ASF X:\für Bonn\!DataBase\2005_08_11_Bastian_Final\c3d\Bastian.ASF
:FULLY-SPECIFIED
:DEGREES
123
root 5.57166 13.4373 -3.26568 139.793 78.579 -220.966
lowerback 68.0353 -11.6994 10.5216
upperback 17.2655 0.583228 3.07103
thorax -1.21102 2.75628 -0.941162
lowerneck -1.00421 -13.7686 -0.721664
upperneck -22.5123 -15.944 20.0267
head -4.77874 -9.32889 6.83605
rclavicle -9.54166e-015 -7.05686e-015
rhumerus 38.1282 -0.741886 -42.0197
rradius 22.4142
rwrist -1.95244
rhand -32.9902 -2.34352
rfingers 7.12502
rthumb -6.20479 -32.2327
lclavicle -9.54166e-015 -7.05686e-015
lhumerus 7.65048 -28.2655 70.3218
lradius 59.9584
lwrist 23.2572
lhand -14.8947 -9.36836
lfingers 7.12502
lthumb 11.2663 20.3091
rfemur -66.1005 -3.61212 8.42291
rtibia 88.8694
rfoot -14.9128 -1.89106
rtoes -15.6446
lfemur -57.9957 -1.10438 -35.0827
ltibia 86.6184
lfoot -19.146 -7.87926
ltoes 12.5737
124
root 5.58702 13.3393 -3.26296 139.479 78.4589 -221.382
lowerback 68.3831 -11.8259 10.5575
upperback 17.2824 0.584832 3.07122
thorax -1.16109 2.77453 -0.936645
lowerneck -1.04791 -13.8124 -0.691018
upperneck -22.8027 -15.9621 20.145
head -4.85079 -9.36165 6.88661
rclavicle 1.62208e-013 3.18552e-014
rhumerus 38.3458 -1.2052 -41.9256
rradius 22.319
rwrist -1.56665
rhand -33.1966 -2.31847
rfingers 7.12502
rthumb -6.40405 -32.2017
lclavicle 1.62208e-013 3.18552e-014
lhumerus 7.84655 -28.3897 70.2961
lradius 59.0292
lwrist 23.0727
lhand -14.6644 -9.27655
lfingers 7.12502
lthumb 11.4884 20.3886
rfemur -66.8839 -3.79664 8.3057
rtibia 89.9238
rfoot -15.2283 -1.87236
rtoes -15.6664
lfemur -58.7011 -1.21611 -35.2645
ltibia 87.7017
lfoot -19.5921 -7.94164
ltoes 12.9695
125
root 5.60207 13.2415 -3.25911 139.283 78.3871 -221.637
lowerback 68.7424 -11.9267 10.5562
upperback 17.3197 0.600053 3.10048
thorax -1.0897 2.79516 -0.889582
lowerneck -1.16756 -13.8384 -0.741246
upperneck -22.9798 -15.9738 20.2676
head -4.8665 -9.37728 6.93309
rclavicle -2.22639e-014 -4.38941e-014
rhumerus 38.6165 -1.91905 -42.1877
rradius 22.197
rwrist -0.760507
rhand -33.3982 -2.16921
rfingers 7.12502
rthumb -6.59862 -32.0464
lclavicle -2.22639e-014 -4.38941e-014
lhumerus 8.03159 -28.439 70.3189
lradius 58.071
lwrist 22.8579
lhand -14.4121 -9.20795
lfingers 7.12502
lthumb 11.7317 20.4435
rfemur -67.6247 -3.93866 8.26145
rtibia 90.9624
rfoot -15.544 -1.89459
rtoes -15.6444
lfemur -59.3782 -1.26328 -35.3986
ltibia 88.7824
lfoot -20.0193 -8.00201
ltoes 13.1
126
root 5.6178 13.1424 -3.25667 138.926 78.2718 -222.069
lowerback 69.0065 -12.0211 10.5474
upperback 17.4013 0.600005 3.12006
thorax -0.974244 2.81403 -0.846846
lowerneck -1.44237 -13.8706 -0.762527
upperneck -23.0231 -16.0154 20.3682
head -4.81637 -9.39656 6.94376
rclavicle 6.04305e-014 1.51573e-015
rhumerus 38.8414 -2.57786 -42.3597
rradius 22.1256
rwrist -0.0633026
rhand -33.7215 -2.03596
rfingers 7.12502
rthumb -6.91073 -31.9032
lclavicle 6.04305e-014 1.51573e-015
lhumerus 8.23825 -28.5081 70.3235
lradius 57.1744
lwrist 22.6594
lhand -14.0435 -9.15998
lfingers 7.12502
lthumb 12.0871 20.4709
rfemur -68.3897 -4.13768 8.16139
rtibia 92.0053
rfoot -15.8416 -1.87795
rtoes -15.7949
lfemur -60.0412 -1.34812 -35.588
ltibia 89.847
lfoot -20.4744 -8.0935
ltoes 13.3943
127
root 5.634 13.0441 -3.25283 138.799 78.1841 -222.244
lowerback 69.2582 -12.0967 10.5251
upperback 17.5009 0.619839 3.19103
thorax -0.840235 2.83592 -0.748371
lowerneck -1.75926 -13.8986 -0.891104
upperneck -22.9804 -16.0657 20.4859
head -4.71837 -9.4076 6.9621
rclavicle -1.20861e-013 -3.40419e-014
rhumerus 39.0657 -3.14199 -42.4521
rradius 22.0954
rwrist 0.546689
rhand -34.1345 -1.9247
rfingers 7.12502
rthumb -7.30938 -31.7785
lclavicle -1.20861e-013 -3.40419e-014
lhumerus 8.41734 -28.4894 70.4299
lradius 56.3231
lwrist 22.3999
lhand -13.6314 -8.99848
lfingers 7.12502
lthumb 12.4845 20.6086
rfemur -69.1083 -4.32309 8.12917
rtibia 93.035
rfoot -16.1837 -1.87185
rtoes -15.9295
lfemur -60.6994 -1.38698 -35.7235
ltibia 90.9146
lfoot -20.8962 -8.20321
ltoes 13.7611
128
root 5.65074 12.945 -3.24978 138.779 78.1049 -222.28
lowerback 69.546 -12.1984 10.5543
upperback 17.5321 0.638812 3.23044
thorax -0.776098 2.85721 -0.705198
lowerneck -1.95967 -13.9362 -0.923679
upperneck -23.0335 -16.1094 20.595
head -4.68153 -9.43082 6.98392
rclavicle -6.99722e-014 -1.05157e-013
rhumerus 39.1688 -3.6169 -42.5588
rradius 22.0733
rwrist 1.11478
rhand -34.5768 -1.80665
rfingers 7.12502
rthumb -7.73633 -31.6451
lclavicle -6.99722e-014 -1.05157e-013
lhumerus 8.53843 -28.5618 70.5392
lradius 55.4693
lwrist 22.1979
lhand -13.2789 -8.87618
lfingers 7.12502
lthumb 12.8243 20.7099
rfemur -69.7907 -4.5305 8.13213
rtibia 94.0609
rfoot -16.5222 -1.88702
rtoes -16.1461
lfemur -61.3102 -1.43203 -35.8299
ltibia 91.9751
lfoot -21.3214 -8.32906
ltoes 14.1363
129
root 5.6672 12.8459 -3.2459 138.759 77.9816 -222.316
lowerback 69.7978 -12.2929 10.545
upperback 17.5508 0.630579 3.2768
thorax -0.733296 2.86018 -0.631908
lowerneck -2.08767 -13.9817 -0.959404
upperneck -23.1681 -16.1504 20.7217
head -4.68027 -9.45979 7.02448
rclavicle -1.27222e-013 -3.27001e-014
rhumerus 39.2488 -4.0909 -42.7847
rradius 22.0572
rwrist 1.79484
rhand -35.0687 -1.62497
rfingers 7.12502
rthumb -8.21107 -31.4454
lclavicle -1.27222e-013 -3.27001e-014
lhumerus 8.57718 -28.6009 70.6735
lradius 54.654
lwrist 21.9511
lhand -12.9294 -8.65272
lfingers 7.12502
lthumb 13.1612 20.9119
rfemur -70.46 -4.7749 8.10492
rtibia 95.0695
rfoot -16.8532 -1.89695
rtoes -16.4158
lfemur -61.9242 -1.48959 -35.9756
ltibia 93.0264
lfoot -21.7281 -8.4483
ltoes 14.4029
130
root 5.68451 12.7487 -3.24238 138.733 77.8978 -222.334
lowerback 70.0295 -12.3547 10.5163
upperback 17.6064 0.645514 3.33541
thorax -0.651246 2.87466 -0.546078
lowerneck -2.29104 -14.0278 -1.00085
upperneck -23.2371 -16.1986 20.8663
head -4.64254 -9.48738 7.05863
rclavicle -6.04305e-014 -7.59357e-014
rhumerus 39.3009 -4.42787 -42.8415
rradius 22.1174
rwrist 2.23012
rhand -35.5848 -1.46749
rfingers 7.12502
rthumb -8.70911 -31.2678
lclavicle -6.04305e-014 -7.59357e-014
lhumerus 8.63017 -28.5743 70.8541
lradius 53.8651
lwrist 21.6836
lhand -12.5057 -8.45668
lfingers 7.12502
lthumb 13.5697 21.0811
rfemur -71.095 -5.0009 8.11668
rtibia 96.0669
rfoot -17.2084 -1.90467
rtoes -16.5813
lfemur -62.4835 -1.51081 -36.0893
ltibia 94.059
lfoot -22.1488 -8.59123
ltoes 14.8417
131
root 5.70163 12.6516 -3.2391 138.841 77.817 -222.197
lowerback 70.2624 -12.4396 10.5333
upperback 17.6378 0.664981 3.39601
thorax -0.59162 2.89149 -0.476814
lowerneck -2.46225 -14.0719 -1.07172
upperneck -23.2615 -16.2467 21.0262
head -4.59146 -9.51346 7.10016
rclavicle -6.36111e-015 -5.54609e-014
rhumerus 39.2817 -4.71206 -42.8405
rradius 22.1999
rwrist 2.61969
rhand -36.0303 -1.3072
rfingers 7.12502
rthumb -9.13905 -31.0892
lclavicle -6.36111e-015 -5.54609e-014
lhumerus 8.66872 -28.6287 71.0031
lradius 53.1357
lwrist 21.4806
lhand -12.1347 -8.26531
lfingers 7.12502
lthumb 13.9272 21.2483
rfemur -71.7044 -5.24575 8.16297
rtibia 97.0514
rfoot -17.5379 -1.91505
rtoes -16.8661
lfemur -63.0261 -1.52654 -36.1786
ltibia 95.0836
lfoot -22.5493 -8.76022
ltoes 15.1533
